<?xml version="1.0" encoding="iso-8859-1"?>
<!-- Uploaded to: SVG Repo, www.svgrepo.com, Generator: SVG Repo Mixer Tools -->
<svg version="1.1" id="Layer_1" xmlns="http://www.w3.org/2000/svg" xmlns:xlink="http://www.w3.org/1999/xlink" 
	 viewBox="0 0 512 512" xml:space="preserve">
<rect x="10.228" y="79.425" style="fill:#82DCC7;" width="493.627" height="241.301"/>
<g>
	<rect x="10.228" y="320.723" style="fill:#74CBB4;" width="493.627" height="112.064"/>
	<ellipse style="fill:#74CBB4;" cx="257.041" cy="200.072" rx="65.531" ry="82.679"/>
</g>
<path d="M502.813,70.132H391.518c-5.073,0-9.187,4.113-9.187,9.187s4.113,9.187,9.187,9.187h50.742
	c3.993,26.429,24.937,47.373,51.367,51.367v120.195c-26.43,3.993-47.373,24.937-51.367,51.367H69.74
	c-3.993-26.43-24.936-47.373-51.367-51.367V139.872c26.43-3.993,47.373-24.937,51.367-51.367h286.869
	c5.073,0,9.187-4.113,9.187-9.187c0-5.073-4.113-9.187-9.187-9.187H9.187C4.113,70.132,0,74.245,0,79.318V320.62v112.062
	c0,5.073,4.113,9.187,9.187,9.187h493.627c5.073,0,9.187-4.113,9.187-9.187V320.62V79.318C512,74.245,507.887,70.132,502.813,70.132
	z M460.945,88.505h32.682v32.682C477.351,117.619,464.513,104.781,460.945,88.505z M493.627,278.751v32.682h-32.682
	C464.513,295.157,477.351,282.319,493.627,278.751z M51.055,311.433H18.373v-32.682C34.649,282.319,47.487,295.157,51.055,311.433z
	 M51.055,88.505c-3.568,16.276-16.406,29.114-32.682,32.682V88.505H51.055z M18.373,423.495v-18.978h81.455
	c5.073,0,9.187-4.113,9.187-9.187s-4.113-9.187-9.187-9.187H18.373v-18.986h355.828c5.073,0,9.187-4.113,9.187-9.187
	c0-5.073-4.113-9.187-9.187-9.187H18.373v-18.978h475.254v18.978h-92.478c-5.073,0-9.187,4.113-9.187,9.187
	c0,5.073,4.113,9.187,9.187,9.187h92.478v18.986H129.225c-5.073,0-9.187,4.113-9.187,9.187s4.113,9.187,9.187,9.187h364.402v18.978
	H18.373z"/>
<path d="M181.282,199.969c0,50.655,33.518,91.866,74.718,91.866s74.718-41.211,74.718-91.866S297.2,108.103,256,108.103
	S181.282,149.314,181.282,199.969z M312.344,199.969c0,40.524-25.277,73.493-56.344,73.493s-56.344-32.969-56.344-73.493
	s25.277-73.493,56.344-73.493S312.344,159.445,312.344,199.969z"/>
<path d="M463.617,177.921h-100.44c-5.073,0-9.187,4.113-9.187,9.187s4.113,9.187,9.187,9.187h100.44
	c5.073,0,9.187-4.113,9.187-9.187S468.691,177.921,463.617,177.921z"/>
<path d="M153.11,187.108c0-5.073-4.113-9.187-9.187-9.187H43.483c-5.073,0-9.187,4.113-9.187,9.187s4.113,9.187,9.187,9.187h100.44
	C148.997,196.294,153.11,192.181,153.11,187.108z"/>
<path d="M463.617,212.524h-55.12c-5.073,0-9.187,4.113-9.187,9.187s4.113,9.187,9.187,9.187h55.12c5.073,0,9.187-4.113,9.187-9.187
	S468.691,212.524,463.617,212.524z"/>
<path d="M43.483,212.524c-5.073,0-9.187,4.113-9.187,9.187s4.113,9.187,9.187,9.187h55.12c5.073,0,9.187-4.113,9.187-9.187
	s-4.113-9.187-9.187-9.187H43.483z"/>
<path d="M246.813,143.933v11.189h-20.217c-5.073,0-9.187,4.113-9.187,9.187v35.659c0,5.073,4.113,9.187,9.187,9.187h49.619v17.286
	h-49.619c-5.073,0-9.187,4.113-9.187,9.187c0,5.073,4.113,9.187,9.187,9.187h20.217v11.189c0,5.073,4.113,9.187,9.187,9.187
	c5.073,0,9.187-4.113,9.187-9.187v-11.189h20.215c5.073,0,9.187-4.113,9.187-9.187v-35.659c0-5.073-4.113-9.187-9.187-9.187h-49.619
	v-17.286h49.619c5.073,0,9.187-4.113,9.187-9.187c0-5.073-4.113-9.187-9.187-9.187h-20.215v-11.189c0-5.073-4.113-9.187-9.187-9.187
	C250.927,134.747,246.813,138.86,246.813,143.933z"/>
</svg>