<?xml version="1.0" standalone="no"?>
<!DOCTYPE svg PUBLIC "-//W3C//DTD SVG 20010904//EN"
 "http://www.w3.org/TR/2001/REC-SVG-20010904/DTD/svg10.dtd">
<svg version="1.0" xmlns="http://www.w3.org/2000/svg"
 width="1087.000000pt" height="1080.000000pt" viewBox="0 0 1087.000000 1080.000000"
 preserveAspectRatio="xMidYMid meet">

<g transform="translate(0.000000,1080.000000) scale(0.100000,-0.100000)"
fill="#000000" stroke="none">
<path d="M1395 10085 c-290 -54 -520 -255 -611 -532 l-29 -88 0 -4080 0 -4080
28 -80 c98 -280 322 -477 605 -531 110 -21 8024 -21 8134 0 283 54 507 251
605 531 l28 80 0 4080 0 4080 -29 88 c-83 253 -289 448 -556 523 -63 18 -210
19 -4085 21 -3273 1 -4033 -1 -4090 -12z m8109 -260 c198 -52 360 -224 395
-419 8 -42 11 -1237 11 -4020 0 -4374 5 -4031 -65 -4165 -65 -124 -183 -221
-320 -264 l-70 -22 -4000 0 -4000 0 -70 22 c-137 43 -255 140 -320 264 -70
134 -65 -209 -65 4165 0 2783 3 3978 11 4020 35 193 196 366 390 418 47 13
597 15 4049 15 3554 1 4002 -1 4054 -14z"/>
<path d="M1615 9498 c-82 -5 -175 -12 -205 -16 l-55 -7 2 -95 c5 -219 69 -614
134 -816 87 -275 222 -415 457 -475 95 -24 250 -25 341 -3 339 83 581 389 581
734 0 257 -128 481 -332 579 -170 82 -535 121 -923 99z m433 -99 c372 -27 515
-83 625 -246 165 -244 127 -571 -93 -794 -61 -62 -93 -85 -170 -122 -200 -97
-374 -101 -552 -11 -89 45 -161 117 -210 210 -56 107 -115 314 -152 539 -22
129 -47 381 -40 399 7 18 41 25 139 29 172 7 317 6 453 -4z"/>
<path d="M3475 9096 c-330 -76 -541 -362 -522 -707 15 -275 184 -501 449 -597
67 -25 85 -27 228 -27 149 0 158 2 237 32 106 40 176 88 255 171 120 128 178
279 178 467 0 133 -15 199 -72 315 -33 67 -58 102 -122 165 -85 85 -154 127
-266 165 -83 28 -275 36 -365 16z m308 -103 c249 -73 427 -303 427 -553 0
-326 -259 -590 -580 -590 -265 0 -497 180 -566 440 -24 91 -22 227 5 310 96
301 420 480 714 393z"/>
<path d="M7212 8557 c-78 -78 -142 -150 -142 -158 0 -9 25 -36 55 -59 31 -24
54 -48 52 -54 -2 -6 -30 -15 -63 -19 -117 -16 -201 -39 -284 -79 -71 -34 -100
-55 -175 -132 -100 -101 -157 -191 -202 -321 -25 -74 -27 -92 -27 -225 0 -117
5 -161 22 -225 72 -264 295 -524 554 -644 111 -52 191 -71 323 -78 302 -15
551 105 703 338 50 77 99 205 107 280 13 116 26 125 90 59 21 -22 44 -40 50
-40 13 0 295 282 295 295 0 13 -1192 1205 -1205 1205 -6 0 -74 -64 -153 -143z
m200 -598 c158 -34 340 -192 398 -345 68 -183 31 -357 -104 -489 -73 -71 -162
-120 -250 -136 -181 -33 -443 109 -534 289 -119 240 -61 472 153 612 112 73
217 94 337 69z"/>
<path d="M5015 8636 c-137 -32 -244 -92 -340 -191 -72 -73 -117 -147 -152
-247 -35 -96 -44 -289 -19 -388 47 -187 181 -357 346 -438 126 -62 190 -75
340 -70 199 8 321 60 460 198 129 128 190 280 190 470 0 302 -175 551 -455
646 -98 33 -273 42 -370 20z m320 -108 c94 -31 164 -76 240 -152 115 -116 170
-253 168 -416 -4 -315 -263 -569 -582 -570 -280 0 -532 218 -573 498 -47 319
180 617 507 665 55 9 179 -5 240 -25z"/>
<path d="M2225 7895 c-185 -38 -372 -185 -453 -355 -56 -119 -76 -215 -69
-349 3 -68 12 -129 26 -171 63 -196 231 -362 436 -431 61 -21 89 -24 215 -24
132 0 152 3 224 28 99 35 195 97 267 173 72 76 105 129 142 229 39 105 49 280
22 400 -49 221 -223 412 -439 481 -101 33 -264 41 -371 19z m305 -102 c153
-42 297 -159 364 -294 85 -173 85 -350 1 -528 -27 -55 -54 -93 -113 -151 -125
-125 -256 -176 -431 -168 -154 7 -271 60 -385 174 -111 109 -170 254 -168 409
3 384 366 660 732 558z"/>
<path d="M5757 6939 c-162 -22 -309 -92 -428 -206 -130 -125 -196 -245 -225
-415 -9 -51 -18 -96 -21 -100 -9 -16 -25 -7 -74 39 l-50 47 -149 -149 c-136
-136 -148 -150 -137 -169 7 -12 375 -383 818 -824 601 -599 812 -803 826 -800
25 4 283 270 283 291 0 8 -118 132 -262 275 -228 226 -260 262 -249 276 7 8
29 18 50 21 204 30 304 77 434 203 159 156 227 329 227 574 0 65 -7 140 -15
178 -70 296 -264 533 -550 672 -161 78 -325 108 -478 87z m198 -445 c176 -45
339 -199 395 -373 33 -104 27 -230 -17 -323 -42 -90 -76 -133 -145 -184 -65
-47 -153 -80 -244 -90 -212 -22 -477 182 -533 411 -53 213 40 415 239 519 109
57 196 69 305 40z"/>
<path d="M2612 6240 c-407 -107 -608 -567 -420 -960 33 -70 56 -101 127 -170
92 -92 157 -132 276 -172 60 -20 89 -23 210 -23 126 1 147 3 213 27 106 38
176 83 257 163 151 151 216 339 194 561 -16 161 -76 283 -198 404 -96 95 -186
147 -301 174 -92 22 -266 20 -358 -4z m370 -103 c193 -70 333 -221 383 -412
19 -76 19 -204 0 -279 -48 -182 -195 -344 -371 -408 -73 -27 -241 -36 -323
-18 -133 28 -279 130 -357 247 -114 172 -127 408 -31 587 79 149 241 269 412
306 71 16 213 4 287 -23z"/>
<path d="M8016 5869 c-86 -12 -191 -48 -263 -91 -121 -73 -237 -218 -282 -355
-43 -129 -45 -314 -5 -437 55 -169 185 -322 335 -394 269 -129 571 -85 778
113 88 84 140 167 178 280 24 71 27 95 27 215 0 121 -3 143 -28 215 -49 141
-128 250 -241 330 -143 102 -324 147 -499 124z"/>
<path d="M4187 5542 c-75 -76 -137 -145 -137 -153 0 -8 25 -39 55 -69 l55 -55
-93 -11 c-244 -31 -475 -189 -576 -396 -145 -295 -109 -636 95 -905 140 -183
344 -328 534 -380 92 -25 357 -25 450 0 261 71 467 274 531 525 10 41 19 94
19 116 0 73 12 76 74 18 30 -29 59 -52 63 -52 15 0 293 286 293 301 0 23
-1182 1199 -1205 1199 -13 0 -71 -50 -158 -138z m217 -597 c257 -67 449 -335
415 -579 -11 -86 -67 -192 -134 -255 -162 -154 -391 -174 -578 -51 -168 109
-266 272 -267 440 -1 204 146 388 350 442 82 21 140 22 214 3z"/>
<path d="M8362 4211 c-119 -30 -216 -85 -302 -171 -119 -120 -177 -239 -200
-411 -33 -249 85 -501 301 -645 111 -74 189 -97 345 -102 152 -5 239 13 359
76 83 43 203 159 253 244 115 195 122 467 17 667 -69 131 -166 225 -300 291
-140 69 -319 88 -473 51z"/>
<path d="M2775 4051 c-134 -39 -235 -101 -335 -208 -106 -112 -153 -211 -166
-354 -12 -142 35 -271 135 -369 97 -94 191 -129 349 -130 115 0 204 18 398 80
83 27 173 52 200 55 104 14 182 -47 169 -130 -20 -130 -160 -223 -363 -240
-45 -4 -85 -11 -88 -16 -3 -5 -2 -87 2 -181 9 -211 7 -208 127 -208 196 1 346
64 508 217 133 126 205 267 216 426 11 158 -39 287 -154 399 -185 178 -362
191 -773 55 -202 -66 -232 -72 -269 -53 -78 41 -68 123 24 204 49 43 108 67
190 77 28 3 65 8 83 11 l32 5 0 179 c0 167 -1 180 -19 190 -31 16 -198 11
-266 -9z"/>
<path d="M5582 3471 c-124 -31 -215 -83 -313 -180 -148 -147 -206 -300 -196
-514 8 -186 63 -313 192 -442 81 -80 152 -125 257 -162 97 -35 298 -44 397
-18 229 59 416 245 481 477 26 92 28 244 5 343 -83 359 -459 585 -823 496z"/>
<path d="M7131 3015 c-241 -55 -444 -252 -508 -495 -23 -87 -22 -253 1 -340
52 -191 183 -349 361 -435 110 -53 181 -69 305 -68 190 1 326 59 466 198 76
75 98 104 132 175 181 378 0 813 -393 946 -100 33 -263 42 -364 19z"/>
<path d="M8120 2721 l-55 -6 3 -145 c6 -379 81 -784 180 -975 94 -182 282
-295 523 -312 283 -20 576 152 705 412 73 149 98 297 75 445 -32 205 -128 353
-293 453 -105 63 -289 105 -557 126 -139 11 -484 12 -581 2z"/>
</g>
</svg>
